<?xml version="1.0" encoding="utf-8"?>
<!-- Generator: Adobe Illustrator 25.0.0, SVG Export Plug-In . SVG Version: 6.00 Build 0)  -->
<svg version="1.1" id="Layer_1" xmlns="http://www.w3.org/2000/svg" xmlns:xlink="http://www.w3.org/1999/xlink" x="0px" y="0px"
	 viewBox="0 0 512 512" style="enable-background:new 0 0 512 512;" xml:space="preserve">
<style type="text/css">
	.st0{fill:#DB5C87;}
</style>
<g transform="translate(0,0)">
	<path class="st0" d="M374.8,83.6c-19.9,25.9-37.3,55.2-57.6,76.8c42.1-31.8,93.6-61.1,124.7-95.3l13.3,12.1
		c-31.9,35.1-79.6,62.9-118.8,91.4c24.9-4.9,53.3-15.8,78.7-29.4c28-15,52.4-33.6,64.6-49.3C498,66,494.8,40.3,469.1,27.4
		C431.8,13.5,390.6,63.4,374.8,83.6L374.8,83.6z M328.3,53.1C312.5,71.5,301,94,297,113.9c-3.1,15.2,4.7,28.3,10.3,38
		c11.9-39,66.3-75,56.7-106.1C354.9,32.8,334.4,46.3,328.3,53.1z M207.8,78.9c-26.3-0.2-53.3,7.4-81.1,29.5
		c4.2,13.2,13.7,24.4,28,33.9c-20.1,1.5-38.1-2.4-55.9-6.9c-2.5,2.9-4.9,5.8-7.3,8.8c-29.2,36.5-25.6,84.9-17.3,138.6
		c1.2,7.7,2.5,15.5,3.7,23.4c18,25.8,44.3,44.6,61.1,63.2c-19.7-4.4-39.2-9.5-55.3-23.6c3.4,27.5,4.6,55.1-0.5,81.7
		c45.3-18.9,106.2-22,165-31.1c42-6.5,82.5-15.7,115.2-33.9c-43.8-4.4-75.8-32.1-96.6-59.1c40.9,15.2,79.2,37.8,125.2,38.7
		c7.5-6.8,14.3-14.5,20.2-23.2c30.1-44.2,26.8-82.2,8.9-115.3c-6.8-12.5-15.8-24.1-26.2-34.7c-13,5.6-26.3,10.3-39.3,13.8
		c8.2,2.2,16.6,3.7,25,4.5l-1.6,17.9c-46-8-118.6-29.6-129.4-96.7l17.5,4.2c2.8,6,6.4,12.5,10,17.4c0.1-11.6,2.1-22.2,5.3-32.4
		c-18.8-8.4-38.6-15.2-59-17.6C218.4,79.3,213.1,79,207.8,78.9L207.8,78.9z M234,208.6c32.5,23.2,112.6,55.8,153.5,67.3
		C326.4,286.3,236.7,268.4,234,208.6z M68.6,390.2c-12,8.3-19.3,15.4-39.8,19.5l3.5,17.7c16-3.2,26.5-8.7,35-14.3
		C68.2,405.6,68.6,397.9,68.6,390.2z M115.4,436c-7.1,1.9-13.9,3.9-20.2,6.3C92,454,87.9,464.6,78.6,475L92,487
		C107.1,470.1,111.4,452,115.4,436L115.4,436z M62.8,436.6c-15.7,7.9-30.1,19.8-42.1,36.5l14.6,10.5c5.8-8.1,12.1-14.7,18.8-20.1
		C56.9,454.6,60.3,445.2,62.8,436.6z"/>
</g>
</svg>
