<?xml version="1.0" encoding="utf-8"?>
<!-- Generator: Adobe Illustrator 25.0.0, SVG Export Plug-In . SVG Version: 6.00 Build 0)  -->
<svg version="1.1" id="Layer_1" xmlns="http://www.w3.org/2000/svg" xmlns:xlink="http://www.w3.org/1999/xlink" x="0px" y="0px"
	 viewBox="0 0 512 512" style="enable-background:new 0 0 512 512;" xml:space="preserve">
<style type="text/css">
	.st0{fill:#F59CB0;}
</style>
<g transform="translate(0,0)">
	<path class="st0" d="M351.6,27c-7.3,0-14.6,1-19.2,2.5c-2,0.7-3.2,1.4-3.8,1.9V85h46V75l-15-15l15-15V31.4
		c-0.6-0.4-1.8-1.2-3.8-1.9C366.2,28,358.8,27,351.6,27z M304.2,50.5c-31.2-0.2-58,6.8-80.9,19.3c-30.6,16.7-53.9,42.8-72.7,73.6
		c-22.8,37.5-39.1,82-53.3,126.7c0.6,0,1.1,0.1,1.7,0.1c2.5,0.2,4.9,0.6,7.4,1.4c3,0.9,5.8,2.1,8.3,3.7
		c14.1-44.1,29.9-87.3,51.3-122.5c17.6-29,38.9-52.5,65.9-67.2c21.8-11.8,47.4-18.2,78.7-17v-18C308.4,50.6,306.3,50.5,304.2,50.5
		L304.2,50.5z M312.6,103v14h78v-14H312.6z M292.7,135c-10.7,16.8-29.7,27.8-45.6,40.1c-17.4,13.6-30.5,26.9-30.5,46.9
		c0,62.9,11.7,105.5,23.5,139c10.5,29.7,21.6,52.4,24,76h175c2.4-23.6,13.5-46.3,24-76c11.8-33.5,23.5-76.1,23.5-139
		c0-20-13.1-33.3-30.5-46.9c-15.9-12.3-34.9-23.3-45.6-40.1H292.7z M96.2,287.9c-2.8,0-5.2,0.8-7.7,2.4c-3.9,2.4-8,7-11.8,13.4
		c-2.4,4.1-4.7,8.8-6.7,13.9c2.7-0.8,5.4-1.3,8.2-1.5c4.7-0.4,9.6,0,14.5,1.5c7.8,2.4,14,6.8,18.9,12.6c1.1-5.4,1.9-10.6,2.1-15.5
		c0.3-7.4-0.6-13.5-2.6-17.7c-1.9-4.1-4.4-6.5-9.9-8.2c-1.3-0.4-2.6-0.6-3.7-0.8C97,288,96.6,287.9,96.2,287.9L96.2,287.9z
		 M81.3,333.9c-0.7,0-1.4,0-2.1,0.1c-8.3,0.8-16.8,6.1-25.1,14.9c-11,11.8-20.2,29-24.3,42.9c-4.1,13.9-5.9,33.3-3.1,49.1
		c2.8,15.8,9.2,26.8,20.2,30.1c11,3.2,22.3-2.4,33.3-14.1c11-11.8,20.1-29,24.3-42.9c4.1-13.8,5.7-33.3,2.8-49.2
		c-2.9-15.9-9.4-26.8-19.9-30C85.5,334.2,83.4,333.9,81.3,333.9z M255.6,455c-5.8,0-8.9,1.8-11.3,4.5c-2.3,2.6-3.7,6.5-3.7,10.5
		s1.4,7.9,3.7,10.5c2.4,2.7,5.5,4.5,11.3,4.5h192c5.8,0,8.9-1.8,11.3-4.5c2.3-2.6,3.7-6.5,3.7-10.5s-1.4-7.9-3.7-10.5
		c-2.4-2.7-5.5-4.5-11.3-4.5H255.6z"/>
</g>
</svg>
