<?xml version="1.0" encoding="utf-8"?>
<!-- Generator: Adobe Illustrator 25.0.0, SVG Export Plug-In . SVG Version: 6.00 Build 0)  -->
<svg version="1.1" id="Layer_1" xmlns="http://www.w3.org/2000/svg" xmlns:xlink="http://www.w3.org/1999/xlink" x="0px" y="0px"
	 viewBox="0 0 512 512" style="enable-background:new 0 0 512 512;" xml:space="preserve">
<style type="text/css">
	.st0{fill:#85AB70;}
</style>
<g transform="translate(0,0)">
	<path class="st0" d="M427.3,26.2c-4.8,0-9.6,1.3-14,3.4c9,78.8,5.5,143.1-43.2,231.8c63.9-73.5,80-178.6,74.8-228.3
		C439.6,28.2,433.5,26.2,427.3,26.2L427.3,26.2z M336.3,74.9c-98.7,2.4-95.5,294.1-310.2,346.8C229.5,547.8,623.4,365,450,152.8
		c-0.9,2.8-1.9,5.6-2.8,8.4C458,214,454,271.4,426.8,334.1c4-40.2,3.3-78.8-2.9-115.7c-7.3,14.3-16.7,28.1-26.3,42.1
		c1.4,40-6.1,82.2-25.7,127.3c3.1-32,2.6-62.9-0.6-92.9c-12.8,14.6-27.2,28.6-43.2,41.5c-3.8,25.4-11,51.7-22.8,78.8
		c2.1-21.6,2.5-42.9,1.7-63.7c-35.6,24.2-77.9,43.6-129.1,54.3c43.1-24.2,77.5-49.2,105.7-74.8c-18.5-3.9-37.6-6.4-56.7-8.2
		c25.2-6.4,50.1-8.9,74.2-8.2c17.2-17.6,31.6-35.3,43.2-53.7c-32.1-5.8-64.7-7.5-97.5-5.3c37.7-18.3,75.4-24.6,112.7-22.2
		c9.7-19.9,16.3-40.4,21-61.3c-28.4-2.7-59.4,4.1-94.6,12.8c31.8-29.2,66.2-41.8,100.4-45.6c1.8-14.5,2.7-29,2.9-43.9
		c-19.7-14-36.3-20.4-50.8-20.8C337.8,74.9,337.1,74.9,336.3,74.9L336.3,74.9z"/>
</g>
</svg>
