<?xml version="1.0" encoding="utf-8"?>
<!-- Generator: Adobe Illustrator 25.0.1, SVG Export Plug-In . SVG Version: 6.00 Build 0)  -->
<svg version="1.1" id="Layer_1" xmlns="http://www.w3.org/2000/svg" xmlns:xlink="http://www.w3.org/1999/xlink" x="0px" y="0px"
	 viewBox="0 0 512 512" style="enable-background:new 0 0 512 512;" xml:space="preserve">
<style type="text/css">
	.st0{fill:#DB5C87;}
</style>
<path class="st0" d="M261.8,23.3c-2.1,0-4.2,0-6.3,0.1C139.3,26,59.9,78.2,39.2,135.4c-11.8,32.7-6,67.1,23.3,99.2
	c19.4,21.2,49.5,41.1,91.8,57.1c-12.9-43.7-18.5-87.9-11.5-132.3l0.3,0c1.8-10.4,6.8-20.4,14.1-29.2c29.6-35.7,94.6-59.7,158.1-48.4
	c77.7,13.8,128.6,37.1,158.3,65.6c-2.9-26.5-18.8-51-43.2-71.6C398.7,48.9,352.9,30,307.6,25.5C291.8,23.9,276.5,23.2,261.8,23.3
	L261.8,23.3z M285.5,97.8c-47.9-0.1-94.2,20.6-113.8,44.3c-5.8,7-9.4,13.6-10.6,20.1l0.2,0c-0.2,1.6-0.5,3.2-0.7,4.7
	c0,5,1.4,9.9,4.4,14.9c7.8,13.1,29.2,27.9,70.7,38.2c13.2,3.3,25.5,5,36.8,5.7l12.8-82.3l9.8,2.2c29.9,6.9,49.6,16.9,60.6,29.9
	c5.5,6.5,8.8,14,9.1,21.7c0,1.4,0,2.9-0.2,4.3c2.8,38.2,1.7,75.5-5.7,111.3c59.3-12.1,102.3-40.7,118.7-71.6
	c13.4-25.3,11.4-51.3-13.2-77s-73.3-50-152.3-64.1C303.3,98.6,294.4,97.8,285.5,97.8z M300.6,166.5l-9.2,59.5
	c5.4-0.3,10.5-0.9,15.2-1.7c18.5-3.3,31-10.6,36.2-17.2c1.7-2.2,2.7-4.2,3.1-6.2c0-0.4,0-0.7-0.1-1.1l0.3,0c0.1-0.6,0.1-1.2,0.1-1.8
	c-0.1-2.9-1.2-6.2-4.6-10.2C335.5,180.8,322.4,172.6,300.6,166.5L300.6,166.5z M158.6,203.7c0.6,31.6,7.2,63.4,17.7,95.5
	c16,5,33.6,9.6,52.6,13.5c39.9,7.5,77.1,8,110.1,3.5c6.5-28.1,8.8-57.5,8.1-87.9c-9.5,6.9-22.2,11.7-37.4,14.4
	c-21.6,3.8-48.3,3.1-78.6-4.4C196.6,229.6,172.9,218,158.6,203.7L158.6,203.7z M28.7,219.2c8.7,185.2,108.4,276.4,230,276.4
	c123.7,0,224.6-104.9,230.4-237.2c-37.8,57.9-139.8,95.9-263.8,72.6l-0.1,0l-0.1,0c-22.5-4.6-43-10-61.6-16.2l-1.6,0.6
	c-0.1-0.4-0.3-0.8-0.4-1.3c-51.6-17.4-88.7-40.5-112.9-66.9C40.6,238.2,33.9,228.8,28.7,219.2L28.7,219.2z"/>
</svg>
