<?xml version="1.0" encoding="utf-8"?>
<!-- Generator: Adobe Illustrator 25.0.0, SVG Export Plug-In . SVG Version: 6.00 Build 0)  -->
<svg version="1.1" id="Layer_1" xmlns="http://www.w3.org/2000/svg" xmlns:xlink="http://www.w3.org/1999/xlink" x="0px" y="0px"
	 viewBox="0 0 512 512" style="enable-background:new 0 0 512 512;" xml:space="preserve">
<style type="text/css">
	.st0{fill:#FFEC5F;}
</style>
<g transform="translate(0,0)">
	<path class="st0" d="M217.5,30.8c0.4,3.9,0.9,8.7,1.3,14.1c15.8,0.8,34-0.8,48-3c-1.3-4.5-2.4-8.3-3.1-11H217.5z M272.2,59.2
		c-17.5,2.3-36.7,4.3-52.3,3.9c0.8,20.6,0.4,44-6.3,61.3c-17.6,45.2-66.9,73.1-107.9,101.2c-20.5,14-39.1,28.1-51,42.9
		c-12,14.8-17.6,29.6-14.1,48.4c6.1,32.9,30.5,59.1,63.9,78.3c-21.3-56,45.5-122.1,89-156c-34.1,49.8-75.2,96.4-71.2,153.8
		c2.5,29.1,23.2,45.8,37.4,52.2c27.8,4.1,52.9-4.8,76.3-13.1c-26.7-29.4-28.5-87.4-11.5-113.4c-5.5,30.4-1.9,65.7,15.4,90
		c16.2,22.5,44.3,39.5,66.6,43.6c9.4,1.7,28.1-4.1,42.6-13.4c-17.5-11.7-28-24.5-32.6-43.4l17.5-4.3c7.3,28.3,28.5,37.4,53.6,40.5
		c25.6,3.2,51.9-4,60.8-17.7c12.5-19.1,15.1-41.1,4.8-65.6c-4.3-10.3-11.9-20.3-20.3-31.8c-16.6-22.6-35.5-45.2-54.2-64.7
		c24.9,10.8,69.6,50.8,84.5,76.1c2.3-6.1,4-12.5,4.9-19.1c2.4-17.9-2.9-32.2-13.7-46.3C417.1,219,359.1,195,321.9,157.8
		c8.9,22.2,18.4,42.6,30.1,62.1C298.7,179.5,290.1,121,272.2,59.2L272.2,59.2z M253.7,447.6c-1.1,19-2.2,28.7-1,46l18-1.3
		c-1.6-11.3-0.1-23.7,0.8-33.5C265.4,455.6,259.4,451.9,253.7,447.6z M237.9,450.6c-6.1,2.2-12.7,4.4-18.3,6.1
		c0.2,11.9-1.2,22-3.6,33.4l17.6,3.7C237.8,479.4,236.9,463.9,237.9,450.6z M208,460c-7.2,1.6-13.8,3.4-20.3,4.1
		c-2.7,7-6.2,11.5-10.5,17.7L192,492C199.3,482.3,205.3,470.5,208,460z M283,464c2.1,11,3.9,19.2,5.8,29.9l17.7-3.1
		c-1.1-7-2.6-14.7-4.1-21C296,468.6,289.5,466.6,283,464z M330.2,467.9c-6.3,1.9-12.7,2.9-18.8,2.8c3.7,7.2,6,12.9,9.1,20.4
		l16.7-6.9C335,478.8,332.5,472.9,330.2,467.9L330.2,467.9z"/>
</g>
</svg>
