<?xml version="1.0" encoding="utf-8"?>
<!-- Generator: Adobe Illustrator 25.0.0, SVG Export Plug-In . SVG Version: 6.00 Build 0)  -->
<svg version="1.1" id="Layer_1" xmlns="http://www.w3.org/2000/svg" xmlns:xlink="http://www.w3.org/1999/xlink" x="0px" y="0px"
	 viewBox="0 0 512 512" style="enable-background:new 0 0 512 512;" xml:space="preserve">
<style type="text/css">
	.st0{fill:#EA7E73;}
</style>
<g transform="translate(0,0)">
	<path class="st0" d="M327.2,20.1l17.6,3.7c-2.4,11.4-7.4,23.1-14.6,34.5c-4.5-4.1-9.5-7.8-15.1-11.1
		C321.2,37.8,325.5,28.5,327.2,20.1z M184.8,20.1c1.7,8.3,6,17.7,12.1,27.2c-5.6,3.2-10.6,6.9-15.1,11
		c-7.2-11.4-12.2-23.2-14.6-34.5L184.8,20.1z M256,55c19,0,36.2,9,49,17.5s21.4,17.1,21.4,17.1l-12.8,12.8c0,0-7.4-7.4-18.6-14.9
		C283.8,80,269,73,256,73s-27.8,7-39,14.5s-18.6,14.9-18.6,14.9l-12.8-12.8c0,0,8.6-8.6,21.4-17.1C219.8,64,237,55,256,55z
		 M473,95.8c0.5,24.2-12.2,43.2-28.9,57.1c-4.5,3.7-9.3,7.1-14.2,10.2c-2.9-5.3-5.9-10.5-9.2-15.5c4.2-2.7,8.2-5.6,11.9-8.6
		c14.1-11.7,22.8-24.9,22.4-42.8L473,95.8z M39,95.8l18,0.3c-0.3,17.9,8.3,31.1,22.5,42.8c3.6,3,7.6,5.9,11.8,8.6
		c-3.2,5-6.3,10.2-9.2,15.5c-4.9-3.1-9.6-6.5-14.1-10.2C51.2,139,38.5,120,39,95.8z M351.9,102.5C404.1,137.4,439,200.1,439,272
		c0,47.5-15.2,90.9-40.5,125c-4.9-17.2-20.6-29-38.5-29c-22.1,0-40,17.9-40,40c0,16.6,10.3,31.5,25.9,37.4
		c-11.1,6.8-22.9,12.4-35.3,16.6c-23.4-29.3-35.8-68.3-45.6-106V175.7c49.3-3.5,87-34.5,87-71.7C352,103.5,351.9,103,351.9,102.5z
		 M160.1,102.5c0,0.5-0.1,1-0.1,1.5c0.1,37.1,37.7,68.1,87,71.6V356c-9.8,37.7-22.2,76.7-45.6,106c-12.4-4.2-24.2-9.8-35.3-16.6
		c15.6-5.9,25.9-20.8,25.9-37.4c0-22.1-17.9-40-40-40c-17.9,0-33.5,11.9-38.4,29.1C88.2,363,73,319.5,73,272
		C73,200.1,107.9,137.4,160.1,102.5L160.1,102.5z M320,180c-8.8,0-16,7.2-16,16s7.2,16,16,16s16-7.2,16-16S328.8,180,320,180z
		 M192,180c-8.8,0-16,7.2-16,16s7.2,16,16,16s16-7.2,16-16S200.8,180,192,180z M392,208c-13.3,0-24,10.7-24,24s10.7,24,24,24l0,0
		c13.3,0,24-10.7,24-24l0,0C416,218.7,405.3,208,392,208z M120,208c-13.2,0-24,10.8-24,24c0,13.2,10.7,24,24,24
		c13.3,0,24-10.7,24-24l0,0C144,218.7,133.3,208,120,208z M485.6,247.3l4.9,17.4l-33.5,9.6V272c0-5.5-0.2-11-0.5-16.4L485.6,247.3z
		 M26.5,247.3l29.1,8.3C55.2,261,55,266.5,55,272v2.3l-33.5-9.6L26.5,247.3z M312,272c-17.7,0-32,14.3-32,32s14.3,32,32,32
		s32-14.3,32-32S329.7,272,312,272z M200,272c-17.7,0-32,14.3-32,32s14.3,32,32,32s32-14.3,32-32S217.7,272,200,272z M416.4,402.8
		c0.6,0.7,1.1,1.4,1.7,2.1c16.5,19.1,35.8,31.6,62.8,34.1l-1.7,18c-31.5-3.1-55.5-18.4-74.1-39.6
		C409.1,412.7,412.8,407.8,416.4,402.8L416.4,402.8z M95.7,402.8c3.5,5,7.2,9.9,11.2,14.6c-18.6,21.2-42.6,36.5-74,39.6l-1.8-18
		c27-2.5,46.3-15,62.8-34.1L95.7,402.8z"/>
</g>
</svg>
