<?xml version="1.0" encoding="utf-8"?>
<!-- Generator: Adobe Illustrator 25.0.0, SVG Export Plug-In . SVG Version: 6.00 Build 0)  -->
<svg version="1.1" id="Layer_1" xmlns="http://www.w3.org/2000/svg" xmlns:xlink="http://www.w3.org/1999/xlink" x="0px" y="0px"
	 viewBox="0 0 512 512" style="enable-background:new 0 0 512 512;" xml:space="preserve">
<style type="text/css">
	.st0{fill:#8299CE;}
</style>
<g transform="translate(0,0)">
	<path class="st0" d="M242.3,27.3c-4.2,0-4.8,0.7-5.6,3.1c-0.8,2.4-0.7,8.4,4.1,17.1c8.8,16,32.4,39.7,78.7,64.6
		c7.1-7.5,15.6-12.9,24.6-16.7c-25.5-14.1-44-29.6-58.9-42.2C266.2,37.1,253.8,27.3,242.3,27.3L242.3,27.3z M176,81.9
		c-3.8,0-4.7,0.9-5.1,1.4c-0.4,0.5-1,1.9-0.5,5.1c1,6.5,7.2,18,18,28.9c21.7,21.9,60.8,42.3,109.5,34.7c2.1-0.3,4.7-0.6,7.8,1.2
		c3.1,1.8,4.7,6,4.8,8.4c0.1,4.8-1.5,6.9-2.7,9.5c-2.5,5.3-4.4,11.7-4.4,11.5v0c2,15,14.4,26.3,32.4,34.6c18,8.4,40.8,13,58.9,14.7
		c12.6,1.2,27.2,1,40.9-1.4c-1.6-2.7-2.7-5.6-3.3-8.5c-1.8-8.2,0.1-16.4,4.1-23.3c6.4-11.1,18.1-19.7,32.4-22.8
		c-4.6-7.8-10.4-16.3-17-24.6c-19.9-25-47.4-47-68-47.4c-20.5-0.4-44.1,6.1-57.4,24.2c-2.2,3.1-5.6,4.1-8,4.5
		c-2.5,0.3-4.6,0.1-6.9-0.3c-4.6-0.8-9.7-2.4-15.6-4.5c-11.8-4.3-26.6-10.9-42.1-17.8c-15.5-6.9-31.7-14.1-45.7-19.4
		C194,85.3,181.5,81.9,176,81.9L176,81.9z M400.4,143.9c8.7,0.3,15.5,7.3,15.5,16c0,8.8-7.2,16-16,16s-16-7.2-16-16
		c0-8.8,7.2-16,16-16C400.1,143.9,400.3,143.9,400.4,143.9L400.4,143.9z M39.8,190.8c-0.8,0-2,0.2-4,1.2c0,0,0,0,0,0
		c-4.3,2.1-7.4,7.2-8.9,16.3c-1.4,9.1-0.7,21.3,1.9,33.5c2.6,12.3,7,24.7,12.1,34.6c3,5.8,6.4,10.6,9.5,14.1
		c5-17.3,13.9-33.8,27.7-48.4c-3.2-2-6-4.4-8.4-7c-7-7.7-11.6-16.9-15.6-24.9c-4-8-7.8-14.9-10.6-17.6c-1.4-1.4-2.2-1.7-3-1.8
		C40.3,190.8,40.1,190.8,39.8,190.8L39.8,190.8z M477.4,192.8c-11.7,1.1-21.3,7.9-25.3,14.9c-2.2,3.8-2.8,7.4-2.1,10.6
		c0.5,2.4,1.7,4.8,4.4,7.3c11.9-4.6,21.2-11.4,26.1-20.9c-0.3,0.4,0.2-1.3-0.5-4.2C479.5,198.4,478.6,195.8,477.4,192.8L477.4,192.8
		z M278.9,200.6c-2.5,0-4.9,0-7.3,0c-71.5,0.8-120.6,13.5-152.6,32.2c-36.6,21.4-51.7,50.1-54.8,81.4c-3.1,31.3,6.6,65.5,22,94.6
		c14.8,28,35.1,51,52,62.2h174.1c-0.1-1.9-0.7-3.6-1.5-5.2c-1.6-3.2-4.9-6.6-10-9.7c-10.2-6.3-27.1-11-44.8-14.4
		c-17.7-3.4-36.2-5.6-50.6-8c-7.2-1.2-13.4-2.4-18.5-4.1c-2.6-0.9-4.9-1.8-7.3-3.6c-2.4-1.8-5.3-5.4-5.3-10c0-2.6,1.3-5,2.4-6.2
		c1.1-1.2,2-1.7,2.8-2.1c1.4-0.8,2.3-1,3.1-1.2c1.7-0.4,3.2-0.6,5.1-0.8c3.8-0.4,8.7-0.8,14.7-1.2c12-0.9,28.1-2.1,45-4.7
		c33.7-5.2,69.4-16.8,81.2-36.4c6.4-10.7,5.7-20.7-0.6-31.2c-6.3-10.5-18.8-20.7-35.7-27.4c-33.8-13.3-84.1-12.5-132.7,22.5
		l-10.5-14.6c33.3-23.9,68-33.7,99-33.8c18.6-0.1,35.9,3.3,50.8,9.2c19.9,7.8,35.7,19.9,44.6,34.9c8.9,15,10.2,33.5,0.6,49.6
		c-17.6,29.5-58.5,39.5-93.9,45c-5.9,0.9-11.3,1.5-16.8,2.1c8.4,1.2,17.3,2.6,26.2,4.3c18.5,3.6,36.9,8.2,50.8,16.8
		c7,4.3,13,9.7,16.7,16.8c2.1,4,3.2,8.6,3.4,13.4h130.7c2.1-1.8,3.4-3.3,3.8-4.1c0.5-1.1,0.5-1.2,0.2-2.1c-0.4-1.8-3.7-6.2-7.8-11.1
		c-2.5-3-11-7.9-21.7-10.6c-10.6-2.7-23.3-3.6-34.2-2.2l-2.3,0.3l-2.2-0.9c-6.7-2.7-11.9-9.7-12.2-16.3c-0.4-6.7,1.9-12.4,4.7-18.5
		c5.7-12.2,14.8-26.4,22.2-42.7c7.4-16.4,12.9-34.5,11.7-53.8c-1.2-18.7-8.5-38.9-27.8-60.9c-0.6-0.1-1.2-0.1-1.9-0.2h0
		c-19.5-1.9-43.5-6.6-64.1-16.1c-15.2-7.1-29.1-17.2-36.4-31.1C288.1,200.6,283.4,200.6,278.9,200.6L278.9,200.6z"/>
</g>
</svg>
