<?xml version="1.0" encoding="utf-8"?>
<!-- Generator: Adobe Illustrator 25.0.0, SVG Export Plug-In . SVG Version: 6.00 Build 0)  -->
<svg version="1.1" id="Layer_1" xmlns="http://www.w3.org/2000/svg" xmlns:xlink="http://www.w3.org/1999/xlink" x="0px" y="0px"
	 viewBox="0 0 512 512" style="enable-background:new 0 0 512 512;" xml:space="preserve">
<style type="text/css">
	.st0{fill:#F1AAAF;}
</style>
<g transform="translate(0,0)">
	<path class="st0" d="M76.5,73.3c-16.7,10.8-24.3,28.1-23.6,44.9c0.7,16.8,8.7,33.3,21.4,46.1c1.3,1.3,2.6,2.5,4,3.7
		c-6.8,11.3-17.1,13-25.5,10.6c-4.8-1.4-8.7-4.3-10.7-7.9c-2-3.5-2.7-7.8,0.1-14.3l-17.2-7.2c-4.6,10.9-3.9,22.1,0.9,30.6
		c4.7,8.5,12.9,14.2,21.9,16.8c15.5,4.4,34.9-1.2,46-18.2c8.6,4.3,18.2,7.2,28.4,8c0.7,11.5,4.8,22.2,11.6,31.8
		c-6.1,2.1-11.2,6.2-14.4,11.6c-8.6,14.3-2.9,35.3,17.5,49.5l10.7-15.3c-15.3-10.6-14.9-20.1-12.2-24.6c1.3-2.2,3.4-3.7,6.8-4.1
		c2.9-0.3,7.1,0.3,12.1,3.4c3,2.2,6.1,4.3,9.3,6.2c16.1,9.7,35.8,16.8,57.7,20.6c-8.1,6.2-13.8,14.3-18.1,23.4
		c-32.8-8.6-64.6-0.2-95,34.6c31.6,7.2,62.2,8.8,90.4-3.4l38,106.4c4.4,16.4,32.5,16.9,37,0l38.2-107.1
		c28.6,12.9,59.7,11.4,91.9,4.1c-30.5-35-62.6-43.3-95.6-34.5c-4.2-9.3-10-17.1-17.6-23c23.5-3.6,44.6-10.9,61.7-21.2
		c3.6-2.2,7.1-4.5,10.4-7c4.4-2.4,8-2.9,10.7-2.6c3.4,0.4,5.5,1.9,6.8,4.1c2.7,4.4,3.1,13.9-12.2,24.6l10.7,15.3
		c20.5-14.2,26.2-35.2,17.5-49.5c-3.2-5.3-8.2-9.3-14.1-11.5c6.8-9.6,11-20.3,11.7-31.8c10.3-0.7,19.9-3.4,28.5-7.6
		c11.2,16.7,30.3,22.1,45.7,17.8c9-2.6,17.2-8.3,21.9-16.8c4.7-8.5,5.4-19.7,0.9-30.6l-17.2,7.2c2.7,6.5,2,10.7,0.1,14.3
		c-2,3.5-5.8,6.5-10.7,7.9c-8.3,2.3-18.3,0.8-25.1-9.9c1.7-1.4,3.2-2.8,4.8-4.4c12.7-12.7,20.7-29.2,21.4-46.1
		c0.7-16.8-7-34.1-23.6-44.9L429.9,89c11.6,7.5,15.6,17.3,15.1,28.5c-0.4,11.2-6.2,23.9-15.9,33.6c-14.8,14.8-37.4,23.7-64.2,12.8
		c6.1-3.8,11.4-9.8,14.6-17.6l-17.3-7.1c-2.7,6.5-6.2,9-10,10.1c-3.9,1.1-8.7,0.5-13.1-2c-8.8-4.9-15.6-15.3-8.5-31.6l-17.1-7.5
		c-9.7,22.2-1.3,43.2,13.2,53.3l-0.1,0.1c15.9,13.6,32.2,21,47.7,23.7c-5.8,15-14.1,23.5-22.9,28c-9.3,4.8-19.6,5.3-28.8,2.8
		c-9.2-2.5-17-8.1-21.1-14.4c-4-6.3-5-12.7-0.9-20.9l-16.6-8.5c-6.9,13.6-5.3,28.4,1.8,39.4c7,11,18.7,18.8,31.9,22.4
		c3.4,0.9,6.9,1.6,10.5,1.9c-19.5,8.5-44,13.8-70.5,13.8c-25.2,0-48.5-4.7-67.5-12.5c2.6-0.4,5.2-0.9,7.7-1.6
		c13.3-3.6,24.9-11.4,31.9-22.4c7-11,8.7-25.8,1.8-39.4l-16.6,8.5c4.2,8.1,3.2,14.6-0.9,20.9c-4,6.3-11.9,11.9-21.1,14.4
		s-19.5,2-28.8-2.8c-9.1-4.7-17.6-13.5-23.5-29.4c15.6-2.5,32.1-9.7,48.2-23.1c15.3-9.8,24.5-31.4,14.5-54.2l-17.1,7.5
		c7.1,16.2,0.3,26.6-8.5,31.5c-4.4,2.5-9.2,3.1-13.1,2c-3.9-1.1-7.4-3.6-10-10.1l-17.3,7.1c3.2,7.8,8.3,13.7,14.4,17.5
		c-26.8,11.1-49.6,2.2-64.4-12.7c-9.7-9.7-15.5-22.4-15.9-33.6C71,106.3,75,96.5,86.6,89L76.5,73.3L76.5,73.3z"/>
</g>
</svg>
