<?xml version="1.0" encoding="utf-8"?>
<!-- Generator: Adobe Illustrator 25.0.0, SVG Export Plug-In . SVG Version: 6.00 Build 0)  -->
<svg version="1.1" id="Layer_1" xmlns="http://www.w3.org/2000/svg" xmlns:xlink="http://www.w3.org/1999/xlink" x="0px" y="0px"
	 viewBox="0 0 512 512" style="enable-background:new 0 0 512 512;" xml:space="preserve">
<style type="text/css">
	.st0{fill:#85AB70;}
</style>
<g transform="translate(0,0)">
	<path class="st0" d="M379.6,19.8c-16.7,0.2-34.2,4.9-50.2,13.6C316.7,40.4,304.9,50,295.1,62c-1.2-1.3-2.6-2.4-3.7-3.7
		c-47.6-54.7-125.5-43.2-160.8,1.3c-5.9,4.9-9.7,12.3-9.7,20.5c0,14.7,11.9,26.6,26.6,26.6c14.7,0,26.6-11.9,26.6-26.6
		c0-10-5.6-18.8-13.8-23.3c31.8-23,82.9-25.4,116.9,13.7c2.2,2.5,4.5,5,6.9,7.3c-11.3,20-17.1,44.6-13.9,72.8
		c-12.3-16.7-31.8-28-55.1-27.5c-12.3,0.3-25.6,3.8-39.6,11.6c-60.4,33.6-37.3,103.5-153.4,103.7c47.2,29,95.1,41.7,136.9,41.8
		c-14.6,71.3,33.3,162.2,146.8,212C250.7,396,324.3,363.7,351,306.2c60.4,9.6,105.2-59.9,134.4,53.5
		c27.7-154-86.9-220.4-158.5-211.9c-14.4,1.7-26.2,8-34.9,17.1c-7.6-30.5-3.8-55.6,6.6-75.2c27.3,19.9,61.4,29.6,90.3,29.5
		c18.5-0.1,35.2-3.9,46.9-13.8c11.7-9.8,16-26.9,9.4-44.6c-8.4-22.4-27.6-35.6-49-39.5C390.7,20.2,385.2,19.8,379.6,19.8L379.6,19.8
		z M379.8,38.6c4.5-0.1,8.8,0.3,12.8,1c16.3,3,28.7,11.5,34.8,27.7c4.7,12.6,2.5,18.3-3.9,23.7c-6.4,5.4-19.2,9.3-34.9,9.3
		c-24.8,0.1-55.9-9.1-79.8-26.5c8.3-10,18.5-18.1,29.4-24C351.8,42.6,366.5,38.8,379.8,38.6z M239.2,166.9
		c6.4,0.1,13.3,0.9,20.9,2.8c-72.2,14.8-84.3,99.5-165.2,81.8C165.2,241.5,177.3,166.3,239.2,166.9L239.2,166.9z M273.2,186.4
		c52.6,110-67.2,156-10,257.6C178.3,350.1,286.4,305.2,273.2,186.4L273.2,186.4z M298.1,190.3c42.3,46.3,133.7-11,164.1,90
		C418.2,208.7,330.8,257.9,298.1,190.3L298.1,190.3z"/>
</g>
</svg>
